<svg width="21" height="22" viewBox="0 0 21 22" fill="none" xmlns="http://www.w3.org/2000/svg">
<path d="M20.2357 9.43147V5.59127C18.4373 5.59127 17.0648 5.11125 16.1792 4.17824C15.2701 3.11343 14.7609 1.76497 14.7391 0.365089V0.0878919L11.1085 0V15.5974C10.9839 16.2779 10.6536 16.9039 10.162 17.3907C9.6705 17.8775 9.04141 18.2018 8.35972 18.3198C7.67802 18.4378 6.97654 18.3438 6.34998 18.0504C5.72341 17.7571 5.20193 17.2786 4.85593 16.6795C4.50993 16.0804 4.35607 15.3896 4.41513 14.7003C4.47419 14.011 4.74332 13.3564 5.18619 12.8249C5.62906 12.2934 6.22434 11.9106 6.89167 11.7281C7.559 11.5456 8.26625 11.5723 8.91794 11.8045V8.08605C8.53797 8.02379 8.15362 7.99214 7.76859 7.99139C6.38327 7.99139 5.02906 8.40219 3.87721 9.17183C2.72535 9.94147 1.82759 11.0354 1.29746 12.3153C0.767317 13.5951 0.628609 15.0035 0.898871 16.3622C1.16913 17.7209 1.83623 18.9689 2.8158 19.9485C3.79537 20.9281 5.04341 21.5951 6.40211 21.8654C7.76082 22.1357 9.16915 21.997 10.449 21.4668C11.7289 20.9367 12.8228 20.0389 13.5925 18.8871C14.3621 17.7352 14.7729 16.381 14.7729 14.9957C14.7721 14.7087 14.7541 14.4219 14.7188 14.1371V7.95083C16.3697 8.98183 18.2904 9.49732 20.2357 9.43147Z" fill="white"/>
</svg>
