<svg width="1600" height="1100" viewBox="0 0 1600 1100" fill="none" xmlns="http://www.w3.org/2000/svg">
  <rect width="1600" height="1100" rx="56" fill="#F3F6F8"/>
  <rect x="54" y="54" width="1492" height="992" rx="44" fill="#EEF2F6"/>
  <path d="M66 226C226 140 402 96 598 96H1510V300H66V226Z" fill="#D7ECF0"/>
  <path d="M102 252C282 178 436 144 604 144H1510V252H102Z" fill="#CAE4E8"/>

  <path d="M210 324C298 280 382 268 470 288L620 322C732 348 838 348 946 322L1092 288C1174 268 1254 276 1346 320L1450 370L1320 468L1138 438C1028 420 918 422 808 444L676 470C574 490 470 492 366 472L220 444L128 388L210 324Z" fill="#CFE6DD"/>
  <path d="M176 612C264 556 346 534 460 542L704 560C816 568 924 556 1030 526L1260 458C1348 432 1420 438 1498 476V894H112L82 678L176 612Z" fill="#D6E7CD"/>

  <path d="M178 376H1422" stroke="#FFFFFF" stroke-width="34" stroke-linecap="round"/>
  <path d="M240 566H1362" stroke="#FFFFFF" stroke-width="38" stroke-linecap="round"/>
  <path d="M560 224V922" stroke="#FFFFFF" stroke-width="24" stroke-linecap="round"/>
  <path d="M980 212V922" stroke="#FFFFFF" stroke-width="24" stroke-linecap="round"/>
  <path d="M768 246L1244 844" stroke="#FFFFFF" stroke-width="22" stroke-linecap="round"/>
  <path d="M380 844L1264 356" stroke="#FFFFFF" stroke-width="18" stroke-linecap="round" opacity="0.9"/>

  <circle cx="392" cy="366" r="90" fill="#FFE1B4"/>
  <circle cx="1166" cy="374" r="78" fill="#FFE1B4"/>
  <circle cx="868" cy="702" r="112" fill="#DFF5E7"/>
  <circle cx="1236" cy="744" r="78" fill="#E6E0FF"/>
  <circle cx="512" cy="750" r="94" fill="#DDF1FF"/>

  <g opacity="0.75">
    <rect x="238" y="724" width="188" height="118" rx="28" fill="#FFFFFF"/>
    <rect x="286" y="202" width="172" height="102" rx="28" fill="#FFFFFF"/>
    <rect x="1070" y="602" width="192" height="124" rx="28" fill="#FFFFFF"/>
    <rect x="1180" y="234" width="142" height="98" rx="24" fill="#FFFFFF"/>
  </g>

  <g opacity="0.55">
    <path d="M170 950C462 912 736 910 1038 950C1240 978 1400 970 1546 940" stroke="#C9D4DB" stroke-width="10" stroke-linecap="round" stroke-dasharray="2 24"/>
    <path d="M160 142C288 116 420 104 570 104" stroke="#B8D9E0" stroke-width="12" stroke-linecap="round"/>
  </g>

  <g fill="#53636F" opacity="0.9">
    <rect x="180" y="148" width="214" height="54" rx="20" fill="#FFFFFF" opacity="0.88"/>
    <text x="218" y="183" font-family="Arial, Helvetica, sans-serif" font-size="26" font-weight="700" fill="#4E606B">ODRA</text>

    <rect x="654" y="116" width="296" height="60" rx="22" fill="#FFFFFF" opacity="0.88"/>
    <text x="698" y="154" font-family="Arial, Helvetica, sans-serif" font-size="28" font-weight="700" fill="#4E606B">PLAN FESTIWALU</text>

    <text x="286" y="274" font-family="Arial, Helvetica, sans-serif" font-size="24" font-weight="700" fill="#4E606B">STREFA A</text>
    <text x="1198" y="298" font-family="Arial, Helvetica, sans-serif" font-size="22" font-weight="700" fill="#4E606B">VIP</text>
    <text x="1104" y="674" font-family="Arial, Helvetica, sans-serif" font-size="24" font-weight="700" fill="#4E606B">GASTRO</text>
    <text x="266" y="792" font-family="Arial, Helvetica, sans-serif" font-size="24" font-weight="700" fill="#4E606B">INFO</text>
  </g>
</svg>
